HIERARCHY
ROOT Hips
{
	OFFSET 0.000000 88.474243 0.000000
	CHANNELS 6 Xposition Yposition Zposition Zrotation Yrotation Xrotation 
	JOINT Hips_Spine
	{
		OFFSET 0.000000 0.000000 0.000000
		CHANNELS 3 Zrotation Yrotation Xrotation
		JOINT Spine
		{
			OFFSET 0.005100 8.711998 -0.691000
			CHANNELS 3 Zrotation Yrotation Xrotation
			JOINT Spine1
			{
				OFFSET -0.009200 8.660301 -1.275000
				CHANNELS 3 Zrotation Yrotation Xrotation
				JOINT Spine2
				{
					OFFSET 0.006300 9.852501 -1.857000
					CHANNELS 3 Zrotation Yrotation Xrotation
					JOINT Spine2_Neck
					{
						OFFSET 0.000000 0.000000 0.000000
						CHANNELS 3 Zrotation Yrotation Xrotation
						JOINT Neck
						{
							OFFSET 0.016300 11.420799 -0.263300
							CHANNELS 3 Zrotation Yrotation Xrotation
							End Site #name: Head
							{
								OFFSET -0.019200 9.262405 2.362500
							}
						}
					}
					JOINT Spine2_LeftShoulder
					{
						OFFSET 0.000000 0.000000 0.000000
						CHANNELS 3 Zrotation Yrotation Xrotation
						JOINT LeftShoulder
						{
							OFFSET 5.616900 6.732201 -0.345700
							CHANNELS 3 Zrotation Yrotation Xrotation
							JOINT LeftArm
							{
								OFFSET 10.664888 -0.183372 -2.440700
								CHANNELS 3 Zrotation Yrotation Xrotation
								JOINT LeftForeArm
								{
									OFFSET 27.459126 0.000000 0.000000
									CHANNELS 3 Zrotation Yrotation Xrotation
									End Site #name: LeftHand
									{
										OFFSET 21.306858 0.000000 0.000000
									}
								}
							}
						}
					}
					JOINT Spine2_RightShoulder
					{
						OFFSET 0.000000 0.000000 0.000000
						CHANNELS 3 Zrotation Yrotation Xrotation
						JOINT RightShoulder
						{
							OFFSET -5.580300 6.737503 -0.344400
							CHANNELS 3 Zrotation Yrotation Xrotation
							JOINT RightArm
							{
								OFFSET -10.679335 -0.188484 -2.383900
								CHANNELS 3 Zrotation Yrotation Xrotation
								JOINT RightForeArm
								{
									OFFSET -27.503529 0.000000 0.000000
									CHANNELS 3 Zrotation Yrotation Xrotation
									End Site #name: RightHand
									{
										OFFSET -21.306808 0.000000 0.000000
									}
								}
							}
						}
					}
				}
			}
		}
	}
	JOINT Hips_LeftUpLeg
	{
		OFFSET 0.000000 0.000000 0.000000
		CHANNELS 3 Zrotation Yrotation Xrotation
		JOINT LeftUpLeg
		{
			OFFSET 6.857700 -6.739601 0.312100
			CHANNELS 3 Zrotation Yrotation Xrotation
			JOINT LeftLeg
			{
				OFFSET -0.367590 -34.731552 -4.572400
				CHANNELS 3 Zrotation Yrotation Xrotation
				End Site #name: LeftFoot
				{
					OFFSET 0.367590 -34.656704 -6.067400
				}
			}
		}
	}
	JOINT Hips_RightUpLeg
	{
		OFFSET 0.000000 0.000000 0.000000
		CHANNELS 3 Zrotation Yrotation Xrotation
		JOINT RightUpLeg
		{
			OFFSET -6.876100 -6.733299 0.301000
			CHANNELS 3 Zrotation Yrotation Xrotation
			JOINT RightLeg
			{
				OFFSET 0.347353 -34.795158 -4.515900
				CHANNELS 3 Zrotation Yrotation Xrotation
				End Site #name: RightFoot
				{
					OFFSET -0.347353 -34.589367 -6.070300
				}
			}
		}
	}
}
MOTION
Frames: 14
Frame Time: 0.041667
0.011126 0.020117 -0.016212 -4.495085 -1.335031 -4.354438 0.000000 -0.000000 0.000000 2.310926 1.465826 17.753654 1.027444 1.049025 2.891549 0.000000 0.000000 0.000000 1.211260 0.727337 1.491401 1.558053 -0.785783 3.647089 0.966357 0.174173 3.273692 -9.889719 -8.028266 1.864331 -63.235755 1.451943 11.734445 0.582491 -19.095759 -0.054974 1.664186 0.585885 3.487797 8.356348 -4.598022 0.641239 71.465336 6.555626 39.322975 -0.292433 9.136293 0.834226 0.000000 0.000000 0.000000 8.569163 8.661008 -60.071969 7.367918 -4.182413 59.085383 0.000000 0.000000 0.000000 -4.807135 -7.434578 -49.650636 -0.700628 -1.210072 57.497438 
0.006647 0.046357 -0.086399 -4.521129 -0.574005 -3.295044 0.000000 -0.000000 -0.000000 2.471977 0.421155 15.579230 0.898764 0.368794 2.639777 0.000000 0.000000 0.000000 0.954154 0.476667 2.705898 0.963003 -0.651295 3.757922 1.091774 0.649749 3.169376 -9.301204 -5.228116 0.718044 -66.999336 -2.164543 4.460303 0.057802 -24.140571 0.860601 0.750132 0.441019 3.050377 8.272071 -4.892805 0.257942 73.225395 10.381016 30.374447 0.068159 17.379074 0.413549 0.000000 0.000000 -0.000000 8.153675 9.488268 -61.095649 7.324780 -3.475385 57.428584 0.000000 0.000000 0.000000 -3.958898 -7.720995 -51.602627 -0.180174 -0.973026 57.804625 
-0.002757 0.036778 -0.138835 -4.225576 0.105692 -2.901174 0.000000 -0.000000 -0.000000 3.444000 0.559584 17.101929 0.679359 0.502665 2.600643 0.000000 0.000000 0.000000 0.831090 0.348842 2.478994 1.118005 0.079292 3.921311 1.032624 0.701738 2.996932 -10.126716 -4.586400 0.444459 -65.466185 -0.795623 4.353249 0.070237 -23.990297 0.757933 0.706305 0.568256 2.991098 7.496465 -4.756933 0.054357 72.536488 11.842150 28.892417 0.170225 23.506302 0.096020 -0.000000 0.000000 -0.000000 8.126043 8.992182 -61.147333 6.976669 -3.820490 56.103748 0.000000 0.000000 -0.000000 -4.165682 -7.241715 -51.941356 0.228641 -0.851495 58.316231 
-0.008640 0.023648 -0.191492 -4.308901 0.477002 -2.927422 0.000000 -0.000000 -0.000000 3.453211 0.994048 17.876366 0.667511 0.484651 3.008077 0.000000 0.000000 0.000000 0.934310 0.389988 2.464361 1.021736 0.001511 5.099168 0.962765 0.589883 3.058471 -8.755961 -3.546093 0.142095 -66.564960 -3.351649 1.761131 0.064948 -24.073142 0.797852 0.807761 0.584038 3.262311 7.408887 -5.013751 -0.048363 73.669440 13.883924 27.759931 0.131140 29.633277 -0.031491 -0.000000 0.000000 -0.000000 8.080818 9.053368 -60.121256 6.982030 -3.752122 54.872162 0.000000 0.000000 -0.000000 -4.143499 -7.353419 -52.218322 0.670654 -0.756113 58.848566 
-0.005344 0.016792 -0.240722 -4.386151 0.774077 -3.099436 0.000000 0.000000 -0.000000 3.366441 1.247351 18.597380 0.693213 0.397924 3.360052 0.000000 0.000000 0.000000 0.962557 0.377635 2.608276 1.007957 -0.074049 6.198725 0.968583 0.505597 3.142776 -8.476093 -2.991484 0.017557 -66.676810 -4.991640 -0.222902 0.087607 -24.993327 0.742459 0.845358 0.574204 3.594715 7.996620 -5.352022 -0.177638 74.448778 15.633354 27.228491 0.099281 33.486152 -0.123743 -0.000000 0.000000 -0.000000 8.094017 9.262588 -59.556558 6.881327 -3.531868 54.512530 0.000000 0.000000 -0.000000 -4.273001 -7.411689 -52.525934 0.836623 -0.785832 59.416072 
0.003625 0.015191 -0.285677 -4.442558 0.832405 -3.250500 0.000000 0.000000 -0.000000 3.247240 1.207211 19.057805 0.726391 0.344531 3.576509 0.000000 0.000000 0.000000 0.975110 0.338648 2.810850 1.101863 -0.050582 6.707341 1.003475 0.466677 3.319795 -8.491278 -2.650506 -0.054075 -66.376878 -5.587899 -0.192860 0.095075 -25.964982 0.693388 0.850807 0.538179 3.858648 8.566424 -5.359107 -0.188539 74.431105 16.839411 26.193296 0.056293 35.779843 -0.177376 -0.000000 0.000000 -0.000000 8.205793 9.509967 -59.257355 6.813960 -3.429416 54.627066 0.000000 0.000000 -0.000000 -4.414011 -7.392244 -52.645456 0.892399 -0.809784 59.806127 
0.015788 0.018123 -0.327732 -4.474577 0.777469 -3.316529 0.000000 0.000000 -0.000000 3.175448 1.139559 19.291189 0.733473 0.314514 3.683858 0.000000 0.000000 0.000000 0.975144 0.310509 2.940797 1.173885 -0.073279 6.919169 1.017572 0.454121 3.422101 -8.413375 -2.147334 -0.168653 -66.007839 -5.753215 0.360552 0.109795 -26.893603 0.690655 0.848045 0.512678 3.963117 8.939825 -5.180160 -0.142595 74.238430 17.442176 25.599219 0.036990 36.574926 -0.184027 -0.000000 0.000000 -0.000000 8.293116 9.635021 -59.103319 6.811108 -3.403650 54.740260 0.000000 0.000000 -0.000000 -4.479991 -7.370271 -52.582397 0.907651 -0.806915 59.884997 
0.027897 0.022793 -0.367685 -4.497277 0.741294 -3.329513 0.000000 0.000000 -0.000000 3.117489 1.124217 19.329760 0.710482 0.304340 3.728089 0.000000 0.000000 0.000000 0.959003 0.293003 3.018937 1.189436 -0.104976 7.035903 1.016383 0.452252 3.492660 -8.256302 -1.729747 -0.252932 -65.712896 -5.680851 1.120720 0.112632 -27.942977 0.701427 0.831318 0.507892 3.990965 9.042424 -4.977555 -0.070926 74.118957 17.671307 25.262232 0.046885 36.506881 -0.170181 -0.000000 0.000000 -0.000000 8.336325 9.652812 -59.055349 6.811086 -3.402139 54.792490 0.000000 0.000000 -0.000000 -4.500656 -7.347652 -52.432481 0.892273 -0.810286 59.781840 
0.035862 0.027451 -0.406576 -4.517851 0.727076 -3.311677 0.000000 0.000000 -0.000000 3.075425 1.087358 19.351279 0.691069 0.307500 3.772614 0.000000 0.000000 0.000000 0.941139 0.283997 3.079521 1.181166 -0.131090 7.127949 1.007161 0.454996 3.533482 -7.992120 -1.313707 -0.340777 -65.607440 -5.369119 1.900367 0.112407 -28.858565 0.712633 0.814125 0.507098 3.999948 8.959535 -4.857806 -0.007058 74.130941 17.747881 24.965327 0.059180 36.276586 -0.141909 -0.000000 0.000000 -0.000000 8.360388 9.644173 -59.067886 6.795084 -3.429703 54.833014 0.000000 0.000000 -0.000000 -4.495967 -7.334220 -52.344158 0.895347 -0.809087 59.685028 
0.040557 0.031538 -0.444555 -4.540083 0.730433 -3.294522 0.000000 0.000000 -0.000000 3.094816 1.047442 19.454457 0.675485 0.313676 3.829258 0.000000 0.000000 0.000000 0.924874 0.277259 3.102723 1.162264 -0.144824 7.226739 0.992856 0.453618 3.543174 -7.735315 -0.943462 -0.439118 -65.627934 -5.088577 2.512723 0.107755 -29.660467 0.731357 0.799351 0.503162 4.002340 8.805235 -4.898788 0.033256 74.262149 17.802259 24.735583 0.067749 36.106173 -0.117586 -0.000000 0.000000 -0.000000 8.377676 9.619398 -59.101444 6.771180 -3.471406 54.849453 0.000000 0.000000 -0.000000 -4.479436 -7.332853 -52.351232 0.897952 -0.802854 59.676644 
0.042518 0.035534 -0.481727 -4.561222 0.740285 -3.289517 0.000000 0.000000 -0.000000 3.146707 0.983741 19.610460 0.658610 0.316260 3.884332 0.000000 0.000000 0.000000 0.906152 0.266772 3.113781 1.153710 -0.148039 7.340237 0.972659 0.445759 3.541574 -7.544187 -0.655986 -0.526582 -65.765100 -4.910065 2.997431 0.102655 -30.259403 0.740775 0.782127 0.496610 4.009274 8.658611 -5.069684 0.054099 74.499606 17.914578 24.575521 0.070200 36.042059 -0.096928 -0.000000 0.000000 -0.000000 8.394288 9.588926 -59.146159 6.747473 -3.512097 54.864052 0.000000 0.000000 -0.000000 -4.464854 -7.336593 -52.411219 0.894391 -0.799902 59.729594 
0.042248 0.039784 -0.518244 -4.581375 0.758649 -3.297991 0.000000 0.000000 0.000000 3.211082 0.912262 19.836239 0.641248 0.316398 3.945383 0.000000 0.000000 0.000000 0.887500 0.257989 3.126597 1.152744 -0.153428 7.473008 0.950473 0.437540 3.542170 -7.370138 -0.381178 -0.606676 -65.967797 -4.831446 3.447393 0.096573 -30.721911 0.751721 0.764681 0.488050 4.025751 8.521454 -5.292342 0.063559 74.803657 18.044536 24.433707 0.064886 36.273844 -0.079197 -0.000000 0.000000 -0.000000 8.411685 9.561632 -59.198148 6.725602 -3.546834 54.903399 0.000000 0.000000 -0.000000 -4.454653 -7.345664 -52.489874 0.890511 -0.795628 59.821767 
0.040358 0.044333 -0.554384 -4.602421 0.776801 -3.320610 0.000000 0.000000 0.000000 3.278000 0.839900 20.084802 0.620357 0.314026 4.009187 0.000000 0.000000 0.000000 0.869630 0.249201 3.147209 1.156036 -0.169419 7.634608 0.931171 0.431116 3.550357 -7.235332 -0.137645 -0.675864 -66.209735 -4.810913 3.899569 0.095241 -31.099348 0.761062 0.745718 0.480714 4.050399 8.371770 -5.510675 0.074251 75.204861 18.067641 24.435796 0.053209 36.804732 -0.066921 -0.000000 0.000000 -0.000000 8.424702 9.540908 -59.243201 6.708051 -3.575876 54.941654 0.000000 0.000000 -0.000000 -4.444469 -7.357759 -52.569323 0.884659 -0.792555 59.927057 
0.037358 0.049215 -0.590244 -4.622871 0.798630 -3.352771 0.000000 0.000000 0.000000 3.326275 0.767200 20.336054 0.598707 0.310799 4.073240 0.000000 0.000000 0.000000 0.849853 0.240582 3.174059 1.158632 -0.196730 7.812595 0.913846 0.425635 3.565280 -7.124343 0.096903 -0.736500 -66.467810 -4.794224 4.342091 0.093839 -31.404400 0.766968 0.725574 0.475496 4.077981 8.195042 -5.691480 0.086407 75.677109 17.930233 24.356681 0.042049 37.651876 -0.052384 -0.000000 0.000000 -0.000000 8.435196 9.526049 -59.283109 6.692988 -3.602934 54.992714 0.000000 0.000000 -0.000000 -4.439177 -7.370406 -52.632100 0.879836 -0.790730 60.020827 
